<svg width="415" height="93" viewBox="0 0 415 93" fill="none" xmlns="http://www.w3.org/2000/svg">
<g clip-path="url(#clip0_127_600)">
<g clip-path="url(#clip1_127_600)">
<path d="M47 93L-0.631393 19.5L94.6314 19.5L47 93Z" fill="black"/>
<path d="M47.5 85L7 23L87.9999 23L47.5 85Z" fill="#3B5998"/>
<path d="M47.5 85L7 23L87.9999 23L47.5 85Z" fill="#3B5998"/>
<path d="M47.5 85L7 23L87.9999 23L47.5 85Z" stroke="white" stroke-width="3"/>
<path d="M47.5 77L7 15L87.9999 15L47.5 77Z" fill="#FFA500"/>
<path d="M47.5 77L7 15L87.9999 15L47.5 77Z" fill="#FFA500"/>
<path d="M47.5 77L7 15L87.9999 15L47.5 77Z" stroke="white" stroke-width="3"/>
<path d="M47.5 70L7 8L87.9999 8L47.5 70Z" fill="#00FF00"/>
<path d="M47.5 70L7 8L87.9999 8L47.5 70Z" fill="#00FF00"/>
<path d="M47.5 70L7 8L87.9999 8L47.5 70Z" stroke="white" stroke-width="3"/>
<path d="M47.5 63L7 -2.19047e-06L87.9999 -2.19047e-06L47.5 63Z" fill="#EAEA1E"/>
<path d="M47.5 63L7 -2.19047e-06L87.9999 -2.19047e-06L47.5 63Z" fill="#EAEA1E"/>
<path d="M47.5 63L7 -2.19047e-06L87.9999 -2.19047e-06L47.5 63Z" stroke="white" stroke-width="3"/>
</g>
<path d="M123.125 34.1562V52.0938H132.094C133.323 52.0938 134.479 51.8646 135.562 51.4062C136.646 50.9271 137.594 50.2812 138.406 49.4688C139.219 48.6562 139.854 47.7083 140.312 46.625C140.792 45.5208 141.031 44.3542 141.031 43.125C141.031 41.8958 140.792 40.7396 140.312 39.6562C139.854 38.5521 139.219 37.5938 138.406 36.7812C137.594 35.9688 136.646 35.3333 135.562 34.875C134.479 34.3958 133.323 34.1562 132.094 34.1562H123.125ZM123.125 70H114.156V25.1875H132.094C133.74 25.1875 135.323 25.4062 136.844 25.8438C138.365 26.2604 139.781 26.8646 141.094 27.6562C142.427 28.4271 143.635 29.3646 144.719 30.4688C145.823 31.5521 146.76 32.7604 147.531 34.0938C148.323 35.4271 148.927 36.8542 149.344 38.375C149.781 39.8958 150 41.4792 150 43.125C150 44.6667 149.802 46.1667 149.406 47.625C149.031 49.0833 148.479 50.4688 147.75 51.7812C147.042 53.0938 146.167 54.3021 145.125 55.4062C144.083 56.5104 142.917 57.4688 141.625 58.2812L146.594 70H137.062L133.156 60.9688L123.125 61.0312V70ZM187.031 70H184.969L181.656 65.4062C180.844 66.1354 179.979 66.8229 179.062 67.4688C178.167 68.0938 177.219 68.6458 176.219 69.125C175.219 69.5833 174.188 69.9479 173.125 70.2188C172.083 70.4896 171.021 70.625 169.938 70.625C167.583 70.625 165.365 70.2292 163.281 69.4375C161.219 68.6458 159.406 67.5 157.844 66C156.302 64.4792 155.083 62.625 154.188 60.4375C153.292 58.25 152.844 55.7604 152.844 52.9688C152.844 50.3646 153.292 47.9792 154.188 45.8125C155.083 43.625 156.302 41.75 157.844 40.1875C159.406 38.625 161.219 37.4167 163.281 36.5625C165.365 35.6875 167.583 35.25 169.938 35.25C171.021 35.25 172.094 35.3854 173.156 35.6562C174.219 35.9271 175.25 36.3021 176.25 36.7812C177.25 37.2604 178.198 37.8229 179.094 38.4688C180.01 39.1146 180.865 39.8125 181.656 40.5625L184.969 36.5938H187.031V70ZM178.438 52.9688C178.438 51.8021 178.208 50.6771 177.75 49.5938C177.312 48.4896 176.708 47.5208 175.938 46.6875C175.167 45.8333 174.26 45.1562 173.219 44.6562C172.198 44.1354 171.104 43.875 169.938 43.875C168.771 43.875 167.667 44.0729 166.625 44.4688C165.604 44.8646 164.708 45.4479 163.938 46.2188C163.188 46.9896 162.594 47.9479 162.156 49.0938C161.719 50.2188 161.5 51.5104 161.5 52.9688C161.5 54.4271 161.719 55.7292 162.156 56.875C162.594 58 163.188 58.9479 163.938 59.7188C164.708 60.4896 165.604 61.0729 166.625 61.4688C167.667 61.8646 168.771 62.0625 169.938 62.0625C171.104 62.0625 172.198 61.8125 173.219 61.3125C174.26 60.7917 175.167 60.1146 175.938 59.2812C176.708 58.4271 177.312 57.4583 177.75 56.375C178.208 55.2708 178.438 54.1354 178.438 52.9688ZM225.906 70H223.844L220.531 65.4062C219.719 66.1354 218.854 66.8229 217.938 67.4688C217.042 68.0938 216.094 68.6458 215.094 69.125C214.094 69.5833 213.062 69.9479 212 70.2188C210.958 70.4896 209.896 70.625 208.812 70.625C206.458 70.625 204.24 70.1875 202.156 69.3125C200.094 68.4167 198.281 67.1875 196.719 65.625C195.177 64.0417 193.958 62.1771 193.062 60.0312C192.167 57.8646 191.719 55.5104 191.719 52.9688C191.719 50.4479 192.167 48.1042 193.062 45.9375C193.958 43.7708 195.177 41.8958 196.719 40.3125C198.281 38.7292 200.094 37.4896 202.156 36.5938C204.24 35.6979 206.458 35.25 208.812 35.25C209.562 35.25 210.333 35.3125 211.125 35.4375C211.938 35.5625 212.719 35.7708 213.469 36.0625C214.24 36.3333 214.958 36.6979 215.625 37.1562C216.292 37.6146 216.854 38.1771 217.312 38.8438V23.2188H225.906V70ZM217.312 52.9688C217.312 51.8021 217.083 50.6771 216.625 49.5938C216.188 48.4896 215.583 47.5208 214.812 46.6875C214.042 45.8333 213.135 45.1562 212.094 44.6562C211.073 44.1354 209.979 43.875 208.812 43.875C207.646 43.875 206.542 44.0833 205.5 44.5C204.479 44.9167 203.583 45.5208 202.812 46.3125C202.062 47.0833 201.469 48.0312 201.031 49.1562C200.594 50.2812 200.375 51.5521 200.375 52.9688C200.375 54.1979 200.594 55.3646 201.031 56.4688C201.469 57.5729 202.062 58.5417 202.812 59.375C203.583 60.2083 204.479 60.8646 205.5 61.3438C206.542 61.8229 207.646 62.0625 208.812 62.0625C209.979 62.0625 211.073 61.8125 212.094 61.3125C213.135 60.7917 214.042 60.1146 214.812 59.2812C215.583 58.4271 216.188 57.4583 216.625 56.375C217.083 55.2708 217.312 54.1354 217.312 52.9688ZM269.188 56.5625C269.188 58.4167 268.833 60.1562 268.125 61.7812C267.417 63.4062 266.448 64.8333 265.219 66.0625C264.01 67.2708 262.594 68.2292 260.969 68.9375C259.344 69.6458 257.604 70 255.75 70H233.344V25.1875H255.75C257.604 25.1875 259.344 25.5417 260.969 26.25C262.594 26.9583 264.01 27.9271 265.219 29.1562C266.448 30.3646 267.417 31.7812 268.125 33.4062C268.833 35.0312 269.188 36.7708 269.188 38.625C269.188 39.4583 269.073 40.3125 268.844 41.1875C268.615 42.0625 268.292 42.9062 267.875 43.7188C267.458 44.5312 266.958 45.2708 266.375 45.9375C265.792 46.6042 265.146 47.1562 264.438 47.5938C265.167 47.9896 265.823 48.5312 266.406 49.2188C266.99 49.8854 267.49 50.625 267.906 51.4375C268.323 52.25 268.635 53.1042 268.844 54C269.073 54.875 269.188 55.7292 269.188 56.5625ZM242.312 61.0312H255.75C256.375 61.0312 256.958 60.9167 257.5 60.6875C258.042 60.4583 258.51 60.1458 258.906 59.75C259.323 59.3333 259.646 58.8542 259.875 58.3125C260.104 57.7708 260.219 57.1875 260.219 56.5625C260.219 55.9375 260.104 55.3542 259.875 54.8125C259.646 54.2708 259.323 53.8021 258.906 53.4062C258.51 52.9896 258.042 52.6667 257.5 52.4375C256.958 52.2083 256.375 52.0938 255.75 52.0938H242.312V61.0312ZM242.312 43.125H255.75C256.375 43.125 256.958 43.0104 257.5 42.7812C258.042 42.5521 258.51 42.2396 258.906 41.8438C259.323 41.4271 259.646 40.9479 259.875 40.4062C260.104 39.8438 260.219 39.25 260.219 38.625C260.219 38 260.104 37.4167 259.875 36.875C259.646 36.3333 259.323 35.8646 258.906 35.4688C258.51 35.0521 258.042 34.7292 257.5 34.5C256.958 34.2708 256.375 34.1562 255.75 34.1562H242.312V43.125ZM307.406 52.9688C307.406 55.4688 306.958 57.8021 306.062 59.9688C305.167 62.1146 303.948 63.9792 302.406 65.5625C300.865 67.125 299.052 68.3646 296.969 69.2812C294.906 70.1771 292.688 70.625 290.312 70.625C287.958 70.625 285.74 70.1771 283.656 69.2812C281.594 68.3646 279.781 67.125 278.219 65.5625C276.677 63.9792 275.458 62.1146 274.562 59.9688C273.667 57.8021 273.219 55.4688 273.219 52.9688C273.219 50.4271 273.667 48.0729 274.562 45.9062C275.458 43.7396 276.677 41.875 278.219 40.3125C279.781 38.7292 281.594 37.4896 283.656 36.5938C285.74 35.6979 287.958 35.25 290.312 35.25C292.688 35.25 294.906 35.6771 296.969 36.5312C299.052 37.3646 300.865 38.5625 302.406 40.125C303.948 41.6667 305.167 43.5312 306.062 45.7188C306.958 47.8854 307.406 50.3021 307.406 52.9688ZM298.812 52.9688C298.812 51.5938 298.583 50.3542 298.125 49.25C297.688 48.125 297.083 47.1667 296.312 46.375C295.542 45.5625 294.635 44.9479 293.594 44.5312C292.573 44.0938 291.479 43.875 290.312 43.875C289.146 43.875 288.042 44.0938 287 44.5312C285.979 44.9479 285.083 45.5625 284.312 46.375C283.562 47.1667 282.969 48.125 282.531 49.25C282.094 50.3542 281.875 51.5938 281.875 52.9688C281.875 54.2604 282.094 55.4583 282.531 56.5625C282.969 57.6667 283.562 58.625 284.312 59.4375C285.083 60.25 285.979 60.8958 287 61.375C288.042 61.8333 289.146 62.0625 290.312 62.0625C291.479 62.0625 292.573 61.8438 293.594 61.4062C294.635 60.9688 295.542 60.3542 296.312 59.5625C297.083 58.7708 297.688 57.8125 298.125 56.6875C298.583 55.5625 298.812 54.3229 298.812 52.9688ZM320.656 70H312.125V36.5312H314.188L317 39.7812C318.375 38.5312 319.927 37.5729 321.656 36.9062C323.406 36.2188 325.229 35.875 327.125 35.875C329.167 35.875 331.094 36.2708 332.906 37.0625C334.719 37.8333 336.302 38.9062 337.656 40.2812C339.01 41.6354 340.073 43.2292 340.844 45.0625C341.635 46.875 342.031 48.8125 342.031 50.875V70H333.5V50.875C333.5 50 333.333 49.1771 333 48.4062C332.667 47.6146 332.208 46.9271 331.625 46.3438C331.042 45.7604 330.365 45.3021 329.594 44.9688C328.823 44.6354 328 44.4688 327.125 44.4688C326.229 44.4688 325.385 44.6354 324.594 44.9688C323.802 45.3021 323.115 45.7604 322.531 46.3438C321.948 46.9271 321.49 47.6146 321.156 48.4062C320.823 49.1771 320.656 50 320.656 50.875V70ZM372.469 66.0938C371.781 66.7188 371.042 67.3125 370.25 67.875C369.479 68.4167 368.667 68.8958 367.812 69.3125C366.958 69.7083 366.073 70.0208 365.156 70.25C364.26 70.5 363.344 70.625 362.406 70.625C360.344 70.625 358.406 70.2604 356.594 69.5312C354.781 68.8021 353.188 67.7708 351.812 66.4375C350.458 65.0833 349.385 63.4479 348.594 61.5312C347.823 59.5938 347.438 57.4271 347.438 55.0312V36.5312H355.938V55.0312C355.938 56.1562 356.104 57.1667 356.438 58.0625C356.792 58.9375 357.26 59.6771 357.844 60.2812C358.427 60.8854 359.104 61.3438 359.875 61.6562C360.667 61.9688 361.51 62.125 362.406 62.125C363.281 62.125 364.104 61.9271 364.875 61.5312C365.667 61.1146 366.354 60.5729 366.938 59.9062C367.521 59.2396 367.979 58.4896 368.312 57.6562C368.646 56.8021 368.812 55.9271 368.812 55.0312V36.5312H377.344V70H375.281L372.469 66.0938ZM402.25 70H382.75V61.5H402.25C402.833 61.5 403.333 61.2917 403.75 60.875C404.167 60.4583 404.375 59.9583 404.375 59.375C404.375 58.7708 404.167 58.375 403.75 58.1875C403.333 58 402.833 57.9062 402.25 57.9062H393.375C391.896 57.9062 390.51 57.625 389.219 57.0625C387.927 56.5 386.802 55.7396 385.844 54.7812C384.885 53.8021 384.125 52.6667 383.562 51.375C383.021 50.0833 382.75 48.6979 382.75 47.2188C382.75 45.7396 383.021 44.3542 383.562 43.0625C384.125 41.7708 384.885 40.6458 385.844 39.6875C386.802 38.7292 387.927 37.9792 389.219 37.4375C390.51 36.875 391.896 36.5938 393.375 36.5938H410.656V45.0938H393.375C392.792 45.0938 392.292 45.3021 391.875 45.7188C391.458 46.1354 391.25 46.6354 391.25 47.2188C391.25 47.8229 391.458 48.3438 391.875 48.7812C392.292 49.1979 392.792 49.4062 393.375 49.4062H402.25C403.708 49.4062 405.083 49.6562 406.375 50.1562C407.667 50.6354 408.792 51.3125 409.75 52.1875C410.708 53.0625 411.469 54.1146 412.031 55.3438C412.594 56.5729 412.875 57.9167 412.875 59.375C412.875 60.8542 412.594 62.2396 412.031 63.5312C411.469 64.8021 410.708 65.9271 409.75 66.9062C408.792 67.8646 407.667 68.625 406.375 69.1875C405.083 69.7292 403.708 70 402.25 70Z" fill="#3B5998"/>
</g>
<defs>
<clipPath id="clip0_127_600">
<rect width="415" height="93" fill="white"/>
</clipPath>
<clipPath id="clip1_127_600">
<rect width="95" height="93" fill="white"/>
</clipPath>
</defs>
</svg>
