<svg width="95" height="93" viewBox="0 0 95 93" fill="none" xmlns="http://www.w3.org/2000/svg">
<g clip-path="url(#clip0_124_576)">
<path d="M47 93L-0.631393 19.5L94.6314 19.5L47 93Z" fill="black"/>
<path d="M47.5 85L7 23L87.9999 23L47.5 85Z" fill="#3B5998"/>
<path d="M47.5 85L7 23L87.9999 23L47.5 85Z" fill="#3B5998"/>
<path d="M47.5 85L7 23L87.9999 23L47.5 85Z" stroke="white" stroke-width="3"/>
<path d="M47.5 77L7 15L87.9999 15L47.5 77Z" fill="#FFA500"/>
<path d="M47.5 77L7 15L87.9999 15L47.5 77Z" fill="#FFA500"/>
<path d="M47.5 77L7 15L87.9999 15L47.5 77Z" stroke="white" stroke-width="3"/>
<path d="M47.5 70L7 8L87.9999 8L47.5 70Z" fill="#00FF00"/>
<path d="M47.5 70L7 8L87.9999 8L47.5 70Z" fill="#00FF00"/>
<path d="M47.5 70L7 8L87.9999 8L47.5 70Z" stroke="white" stroke-width="3"/>
<path d="M47.5 63L7 -2.19047e-06L87.9999 -2.19047e-06L47.5 63Z" fill="#EAEA1E"/>
<path d="M47.5 63L7 -2.19047e-06L87.9999 -2.19047e-06L47.5 63Z" fill="#EAEA1E"/>
<path d="M47.5 63L7 -2.19047e-06L87.9999 -2.19047e-06L47.5 63Z" stroke="white" stroke-width="3"/>
</g>
<defs>
<clipPath id="clip0_124_576">
<rect width="95" height="93" fill="white"/>
</clipPath>
</defs>
</svg>
